<?xml version="1.0" encoding="UTF-8"?>
<svg width="142px" height="42px" viewBox="0 0 168 50" version="1.1" xmlns="http://www.w3.org/2000/svg" xmlns:xlink="http://www.w3.org/1999/xlink">
    <!-- Generator: Sketch 43.1 (39012) - http://www.bohemiancoding.com/sketch -->
    <title>Rectangle</title>
    <desc>Created with Sketch.</desc>
    <defs>

        <rect stroke="black" stroke-width="1" id="path-2" x="0" y="5" width="162" height="42" rx="15"></rect>
    </defs>
    <g id="Page-1" fill="none" fill-rule="evenodd">
        <g id="Rectangle" >
            <use fill="#FFFFFF" xlink:href="#path-2"></use>
            
        </g>
        <g id="Logo-v2-(1)" transform="translate(12.000000, 7.000000)">
            <g id="Logo">
            <svg xmlns="http://www.w3.org/2000/svg" width="32px" viewBox="-2 4 30 26">
                <path fill="rgba(0, 0, 32, 1)" fill-rule="evenodd" d="M5.84439563e-15,18.52072 C0.042601976,19.0415198 0.225318565,19.5638181 0.704130384,20.2650123 C1.27202197,21.0966169 2.24914731,21.5536071 2.9619004,20.8204258 C3.44287509,20.3256353 8.643748,11.2343287 11.1501969,7.78933904 C11.4511295,7.3640867 12.0728268,7.3640867 12.3739317,7.78933904 C14.8803807,11.2343287 20.0812536,20.3256353 20.5622283,20.8204258 C21.2748089,21.5536071 22.2521067,21.0966169 22.8199983,20.2650123 C23.3790947,19.4462456 23.5343035,18.8713971 23.5343035,18.2580353 C23.5343035,17.8402716 15.4344759,2.76636898 14.6187677,1.5116517 C13.8343003,0.304828919 13.5946623,0.042335452 12.268059,0 L11.2560275,1.79395598e-12 C9.92932506,0.042335452 9.68981105,0.304828919 8.90518853,1.5116517 C8.10659328,2.74030565 0.3230204,17.219996 0,18.213285 L5.84439563e-15,18.52072 Z"/>
            </svg>
            </g>
        </g>
        <g transform="translate(3.000000, 5.000000)">
            <path d="M55.2363281,20.8876953 L50.2485352,20.8876953 L50.2485352,25.2382812 L55.9833984,25.2382812 L55.9833984,26 L49.3476562,26 L49.3476562,15.3359375 L55.9467773,15.3359375 L55.9467773,16.1049805 L50.2485352,16.1049805 L50.2485352,20.1259766 L55.2363281,20.1259766 L55.2363281,20.8876953 Z M57.1845703,21.9643555 C57.1845703,20.7338806 57.4592258,19.7536658 58.0085449,19.0236816 C58.5578641,18.2936975 59.3037062,17.9287109 60.2460938,17.9287109 C61.315435,17.9287109 62.1308566,18.35107 62.6923828,19.1958008 L62.6923828,14.75 L63.5639648,14.75 L63.5639648,26 L62.7436523,26 L62.7070312,24.9453125 C62.145505,25.7460978 61.3203179,26.1464844 60.2314453,26.1464844 C59.3183548,26.1464844 58.5822782,25.7790564 58.0231934,25.0441895 C57.4641085,24.3093225 57.1845703,23.3169008 57.1845703,22.0668945 L57.1845703,21.9643555 Z M58.0708008,22.1181641 C58.0708008,23.1289113 58.2734355,23.9260225 58.6787109,24.5095215 C59.0839864,25.0930205 59.6552698,25.3847656 60.3925781,25.3847656 C61.4716851,25.3847656 62.238279,24.9086962 62.6923828,23.956543 L62.6923828,20.2358398 C62.238279,19.2055613 61.4765678,18.6904297 60.4072266,18.6904297 C59.6699182,18.6904297 59.0961935,18.9797334 58.6860352,19.5583496 C58.2758769,20.1369658 58.0708008,20.9902287 58.0708008,22.1181641 Z M66.8525391,26 L65.9736328,26 L65.9736328,18.0751953 L66.8525391,18.0751953 L66.8525391,26 Z M65.8198242,15.7827148 C65.8198242,15.6166984 65.8735346,15.4763189 65.980957,15.3615723 C66.0883794,15.2468256 66.2348624,15.1894531 66.4204102,15.1894531 C66.605958,15.1894531 66.7536616,15.2468256 66.8635254,15.3615723 C66.9733892,15.4763189 67.0283203,15.6166984 67.0283203,15.7827148 C67.0283203,15.9487313 66.9733892,16.0878901 66.8635254,16.2001953 C66.7536616,16.3125006 66.605958,16.3686523 66.4204102,16.3686523 C66.2348624,16.3686523 66.0883794,16.3125006 65.980957,16.2001953 C65.8735346,16.0878901 65.8198242,15.9487313 65.8198242,15.7827148 Z M70.5952148,16.0463867 L70.5952148,18.0751953 L72.2358398,18.0751953 L72.2358398,18.7929688 L70.5952148,18.7929688 L70.5952148,24.0737305 C70.5952148,24.5131858 70.6745598,24.840331 70.833252,25.0551758 C70.9919442,25.2700206 71.2568341,25.3774414 71.6279297,25.3774414 C71.7744148,25.3774414 72.0112288,25.3530276 72.3383789,25.3041992 L72.375,26.0219727 C72.1455067,26.1049809 71.8330098,26.1464844 71.4375,26.1464844 C70.8369111,26.1464844 70.3999037,25.9719256 70.1264648,25.6228027 C69.853026,25.2736799 69.7163086,24.759769 69.7163086,24.0810547 L69.7163086,18.7929688 L68.2587891,18.7929688 L68.2587891,18.0751953 L69.7163086,18.0751953 L69.7163086,16.0463867 L70.5952148,16.0463867 Z M77.2163086,21.9204102 C77.2163086,21.1586876 77.3640122,20.4726593 77.6594238,19.8623047 C77.9548355,19.2519501 78.3723118,18.7771013 78.9118652,18.4377441 C79.4514187,18.098387 80.0629849,17.9287109 80.746582,17.9287109 C81.8012748,17.9287109 82.6557584,18.2985803 83.3100586,19.0383301 C83.9643587,19.7780799 84.2915039,20.7582947 84.2915039,21.9790039 L84.2915039,22.1621094 C84.2915039,22.9287148 84.1438003,23.6184051 83.8483887,24.2312012 C83.552977,24.8439972 83.1367214,25.3164046 82.5996094,25.6484375 C82.0624973,25.9804704 81.4497105,26.1464844 80.7612305,26.1464844 C79.7114205,26.1464844 78.8581576,25.776615 78.201416,25.0368652 C77.5446745,24.2971154 77.2163086,23.3169006 77.2163086,22.0961914 L77.2163086,21.9204102 Z M78.0952148,22.1621094 C78.0952148,23.1093797 78.3405737,23.8869599 78.8312988,24.494873 C79.3220239,25.1027862 79.9653281,25.4067383 80.7612305,25.4067383 C81.55225,25.4067383 82.1931128,25.1027862 82.6838379,24.494873 C83.174563,23.8869599 83.4199219,23.0849659 83.4199219,22.0888672 L83.4199219,21.9204102 C83.4199219,21.3149384 83.3076183,20.7607447 83.0830078,20.2578125 C82.8583973,19.7548803 82.5434591,19.3654799 82.1381836,19.0895996 C81.7329081,18.8137193 81.2690456,18.6757812 80.746582,18.6757812 C79.9653281,18.6757812 79.3281275,18.9821747 78.8349609,19.5949707 C78.3417944,20.2077667 78.0952148,21.0097607 78.0952148,22.0009766 L78.0952148,22.1621094 Z M86.9355469,18.0751953 L86.9648438,19.4301758 C87.2626968,18.9418921 87.6337868,18.5695814 88.078125,18.3132324 C88.5224632,18.0568835 89.0131809,17.9287109 89.550293,17.9287109 C90.3999066,17.9287109 91.0322245,18.1679664 91.4472656,18.6464844 C91.8623068,19.1250024 92.0722656,19.8427687 92.0771484,20.7998047 L92.0771484,26 L91.2055664,26 L91.2055664,20.7924805 C91.2006836,20.0844691 91.0505386,19.5571306 90.755127,19.2104492 C90.4597153,18.8637678 89.9873079,18.6904297 89.3378906,18.6904297 C88.7958957,18.6904297 88.3161642,18.8601057 87.8986816,19.1994629 C87.4811991,19.5388201 87.1723643,19.9965792 86.972168,20.5727539 L86.972168,26 L86.1005859,26 L86.1005859,18.0751953" id="Edit-on-CodeSandbox" fill="#000000"></path>
        </g>
          <g transform="translate(101.000000, 16.000000)">
            <path fill="#000000" d="M0.583491239,16.0324821 L0.583491239,0.578259454 L10.0431199,0.578259454 L10.0431199,3.33803123 L3.46623518,3.33803123 L3.46623518,6.80406065 L9.44522132,6.80406065 L9.44522132,9.45346295 L3.46623518,9.45346295 L3.46623518,13.2728887 L10.0431199,13.2728887 L10.0431199,16.0324821 L0.583491239,16.0324821 Z M12.2294939,16.0324821 L16.1585173,9.98337907 L12.4643765,4.3315348 L15.3471204,4.3315348 L17.8880602,8.26132998 L17.9308288,8.26132998 L20.4719411,4.3315348 L23.3545126,4.3315348 L19.6603717,9.98337907 L23.5893951,16.0324821 L20.6212864,16.0324821 L17.9308288,11.8379072 L17.8880602,11.8379072 L15.1976027,16.0324821 L12.2294939,16.0324821 Z M25.7247227,21 L25.7247227,4.3315348 L28.372584,4.3315348 L28.372584,5.4573391 L28.4153527,5.4573391 L28.5221018,5.29187404 C28.5648704,5.22554537 28.6750687,5.11160984 28.8530414,4.94971084 C29.0310141,4.78763353 29.2267496,4.64053367 29.4402478,4.50805464 C29.6537461,4.37557561 29.9420895,4.25789572 30.3051055,4.15483666 C30.6681215,4.0517776 31.055971,4.00024807 31.4688262,4.00024807 C32.8070706,4.00024807 33.977862,4.55583981 34.9815453,5.66720158 C35.9850561,6.77838504 36.4868977,8.28326124 36.4868977,10.1820085 C36.4868977,12.0953765 36.0028189,13.6039971 35.0348336,14.7078701 C34.0668483,15.8117432 32.8924354,16.3637689 31.5115949,16.3637689 C31.0987396,16.3637689 30.7179608,16.3122393 30.369086,16.2091803 C30.0203837,16.1061212 29.7392834,15.984697 29.5257851,15.8449075 C29.3121144,15.7051181 29.127071,15.5653286 28.9704827,15.4253609 C28.8138943,15.2855714 28.7000745,15.1641472 28.6288509,15.0610881 L28.5434861,14.9066778 L28.5007175,14.9066778 L28.5007175,21 L25.7247227,21 Z M28.5007175,8.96776594 L28.5007175,11.3741414 C28.5007175,12.0513357 28.7214588,12.6215483 29.1627691,13.0851357 C29.6040793,13.5489015 30.1947348,13.7806952 30.9350806,13.7806952 C31.7464775,13.7806952 32.4119781,13.4715181 32.9315825,12.853342 C33.451187,12.235166 33.7109029,11.3447215 33.7109029,10.1820085 C33.7109029,9.01929547 33.4548085,8.12885095 32.9422747,7.51067492 C32.4297409,6.89249888 31.7606187,6.5833217 30.9350806,6.5833217 C30.1947348,6.5833217 29.6040793,6.81511543 29.1627691,7.27888119 C28.7214588,7.74246864 28.5007175,8.30537079 28.5007175,8.96776594 Z M43.7042773,16.3637689 C42.1668483,16.3637689 40.9,15.8192319 39.9033873,14.7299797 C38.9069471,13.6409058 38.408727,12.1247965 38.408727,10.1820085 C38.408727,8.2686404 38.9212608,6.76001985 39.946156,5.6561468 C40.9710511,4.55227375 42.2239307,4.00024807 43.7042773,4.00024807 C45.1847964,4.00024807 46.4375035,4.55227375 47.4625711,5.6561468 C48.4874662,6.76001985 49,8.2686404 49,10.1820085 C49,12.1247965 48.5017799,13.6409058 47.5053397,14.7299797 C46.508727,15.8192319 45.2418787,16.3637689 43.7042773,16.3637689 Z M43.7042773,13.7806952 C44.5015329,13.7806952 45.1278865,13.467952 45.5835104,12.8422872 C46.0389619,12.2168008 46.2667738,11.3301006 46.2667738,10.1820085 C46.2667738,9.03391631 46.0355128,8.14721615 45.5728182,7.52172969 C45.1101237,6.89606493 44.4873917,6.5833217 43.7042773,6.5833217 C42.9213353,6.5833217 42.2986033,6.89249888 41.8359088,7.51067492 C41.3732142,8.12885095 41.1419532,9.01929547 41.1419532,10.1820085 C41.1419532,11.3447215 41.3697652,12.235166 41.8252166,12.853342 C42.2808406,13.4715181 42.9071941,13.7806952 43.7042773,13.7806952 Z"/>
        </g>
    </g>
</svg>